<svg xmlns="http://www.w3.org/2000/svg" xmlns:xlink="http://www.w3.org/1999/xlink" width="500" zoomAndPan="magnify" viewBox="0 0 375 374.999991" height="500" preserveAspectRatio="xMidYMid meet" version="1.0"><defs><g/><clipPath id="e61ae4e689"><path d="M 4.265625 98.792969 L 134 98.792969 L 134 276.542969 L 4.265625 276.542969 Z M 4.265625 98.792969 " clip-rule="nonzero"/></clipPath></defs><g clip-path="url(#e61ae4e689)"><path fill="#fdf3e6" d="M 127.132812 128.917969 L 118.273438 162.035156 C 117.808594 163.625 118.835938 165.308594 120.417969 165.683594 C 120.699219 165.777344 120.980469 165.777344 121.164062 165.777344 C 122.46875 165.777344 123.683594 164.933594 124.054688 163.53125 L 133.65625 127.511719 C 133.84375 126.765625 133.75 125.921875 133.378906 125.269531 C 133.003906 124.613281 132.351562 124.050781 131.511719 123.863281 L 125.828125 122.367188 L 127.597656 115.632812 C 128.902344 110.859375 126.011719 105.808594 121.257812 104.59375 L 115.757812 103.097656 C 111.003906 101.785156 105.96875 104.6875 104.757812 109.457031 L 87.507812 174.007812 L 86.761719 174.007812 L 86.761719 101.785156 C 86.855469 100.101562 85.550781 98.792969 83.871094 98.792969 L 53.945312 98.792969 C 52.269531 98.792969 50.960938 100.101562 50.960938 101.785156 L 50.960938 174.101562 L 49.65625 174.101562 L 33.527344 123.492188 C 33.527344 123.492188 33.527344 123.492188 33.527344 123.398438 C 33.433594 123.023438 33.15625 122.648438 32.875 122.367188 C 32.875 122.367188 32.875 122.273438 32.78125 122.273438 L 13.761719 102.722656 C 12.925781 101.878906 11.710938 101.597656 10.6875 101.972656 C 9.566406 102.347656 8.820312 103.285156 8.636719 104.40625 L 4.441406 131.347656 C 4.441406 131.441406 4.441406 131.441406 4.441406 131.535156 C 4.441406 131.816406 4.441406 132.097656 4.535156 132.378906 C 4.535156 132.472656 4.535156 132.566406 4.535156 132.660156 L 17.773438 174.007812 C 15.441406 174.007812 13.203125 174.945312 11.527344 176.628906 C 9.847656 178.3125 8.914062 180.652344 8.914062 182.988281 C 8.914062 187.480469 12.179688 191.128906 16.46875 191.878906 L 16.46875 259.703125 C 16.46875 268.964844 24.019531 276.542969 33.25 276.542969 L 101.867188 276.542969 C 111.097656 276.542969 118.648438 268.964844 118.648438 259.703125 L 118.648438 192.066406 C 122.9375 191.316406 126.199219 187.667969 126.199219 183.175781 C 126.199219 180.746094 125.265625 178.5 123.589844 176.816406 C 121.910156 175.132812 119.671875 174.195312 117.25 174.195312 L 112.402344 174.195312 L 122.65625 135.652344 L 124.613281 128.261719 Z M 110.628906 111.140625 C 111.097656 109.550781 112.773438 108.617188 114.265625 108.988281 L 119.765625 110.488281 C 121.351562 110.953125 122.285156 112.546875 121.910156 114.136719 L 119.300781 123.769531 L 117.34375 131.160156 L 106.0625 128.167969 Z M 56.929688 104.78125 L 80.890625 104.78125 L 80.890625 107.585938 L 69.796875 107.585938 C 68.117188 107.585938 66.8125 108.898438 66.8125 110.582031 C 66.8125 112.265625 68.117188 113.574219 69.796875 113.574219 L 80.890625 113.574219 L 80.890625 118.160156 L 75.109375 118.160156 C 73.429688 118.160156 72.125 119.46875 72.125 121.152344 C 72.125 122.835938 73.429688 124.144531 75.109375 124.144531 L 80.890625 124.144531 L 80.890625 128.730469 L 69.796875 128.730469 C 68.117188 128.730469 66.8125 130.039062 66.8125 131.722656 C 66.8125 133.40625 68.117188 134.71875 69.796875 134.71875 L 80.890625 134.71875 L 80.890625 139.300781 L 75.109375 139.300781 C 73.429688 139.300781 72.125 140.609375 72.125 142.292969 C 72.125 143.980469 73.429688 145.289062 75.109375 145.289062 L 80.890625 145.289062 L 80.890625 149.871094 L 69.796875 149.871094 C 68.117188 149.871094 66.8125 151.183594 66.8125 152.867188 C 66.8125 154.550781 68.117188 155.859375 69.796875 155.859375 L 80.890625 155.859375 L 80.890625 160.445312 L 75.109375 160.445312 C 73.429688 160.445312 72.125 161.753906 72.125 163.4375 C 72.125 165.121094 73.429688 166.429688 75.109375 166.429688 L 80.890625 166.429688 L 80.890625 173.914062 L 56.929688 173.914062 Z M 24.019531 174.101562 L 11.152344 133.78125 C 12.644531 133.3125 14.695312 132.660156 17.027344 131.910156 L 30.265625 174.101562 Z M 11.804688 123.304688 L 22.246094 120.121094 L 25.136719 123.023438 C 18.425781 125.175781 14.042969 126.578125 11.152344 127.511719 Z M 36.605469 174.101562 L 22.808594 130.039062 C 24.765625 129.382812 26.816406 128.730469 28.679688 128.167969 L 43.316406 174.101562 Z M 17.492188 115.164062 L 12.832031 116.566406 L 13.671875 111.140625 Z M 22.433594 210.308594 L 64.480469 210.308594 L 64.480469 232.949219 L 22.433594 232.949219 Z M 112.496094 259.703125 C 112.496094 265.691406 107.648438 270.460938 101.773438 270.460938 L 33.15625 270.460938 C 27.1875 270.460938 22.433594 265.597656 22.433594 259.703125 L 22.433594 238.839844 L 67.464844 238.839844 C 69.140625 238.839844 70.449219 237.53125 70.449219 235.847656 L 70.449219 207.21875 C 70.449219 205.535156 69.140625 204.226562 67.464844 204.226562 L 22.433594 204.226562 L 22.433594 192.160156 L 112.496094 192.160156 Z M 119.113281 181.027344 C 119.671875 181.585938 119.953125 182.335938 119.953125 183.175781 C 119.953125 184.859375 118.648438 186.171875 116.96875 186.171875 L 17.957031 186.171875 C 16.28125 186.171875 14.976562 184.859375 14.976562 183.175781 C 14.976562 182.335938 15.253906 181.585938 15.8125 181.027344 C 16.375 180.464844 17.121094 180.183594 17.957031 180.183594 L 116.96875 180.183594 C 117.808594 180.089844 118.554688 180.464844 119.113281 181.027344 Z M 93.847656 174.101562 L 104.570312 133.875 L 115.851562 136.867188 L 105.96875 174.007812 L 93.847656 174.007812 Z M 93.847656 174.101562 " fill-opacity="1" fill-rule="nonzero"/></g><g fill="#fdf3e6" fill-opacity="1"><g transform="translate(154.866381, 201.308061)"><g><path d="M 0.4375 -1.109375 L 12.546875 -30.9375 L 17.140625 -30.9375 L 29.078125 -1.109375 L 25.234375 0.4375 L 21.78125 -8.390625 L 7.46875 -8.390625 L 4.015625 0.359375 Z M 8.796875 -11.9375 L 20.421875 -11.9375 L 14.625 -26.78125 Z M 8.796875 -11.9375 "/></g></g></g><g fill="#fdf3e6" fill-opacity="1"><g transform="translate(184.382434, 201.308061)"><g><path d="M 5.34375 -29.390625 L 8.390625 -29.390625 L 8.390625 -22.140625 L 14.765625 -22.140625 L 14.765625 -18.6875 L 8.390625 -18.6875 L 8.390625 -7.59375 C 8.390625 -6.738281 8.484375 -6.015625 8.671875 -5.421875 C 8.867188 -4.835938 9.128906 -4.367188 9.453125 -4.015625 C 9.773438 -3.660156 10.164062 -3.398438 10.625 -3.234375 C 11.082031 -3.078125 11.5625 -3 12.0625 -3 C 12.800781 -3 13.492188 -3.117188 14.140625 -3.359375 C 14.785156 -3.597656 15.40625 -3.878906 16 -4.203125 L 17.09375 -1.015625 C 16.507812 -0.660156 15.71875 -0.316406 14.71875 0.015625 C 13.71875 0.359375 12.671875 0.53125 11.578125 0.53125 C 9.367188 0.53125 7.625 -0.1875 6.34375 -1.625 C 5.0625 -3.070312 4.421875 -5.164062 4.421875 -7.90625 L 4.421875 -18.6875 L 0.4375 -18.6875 L 0.4375 -22.140625 L 4.5 -22.140625 Z M 5.34375 -29.390625 "/></g></g></g><g fill="#fdf3e6" fill-opacity="1"><g transform="translate(201.924157, 201.308061)"><g><path d="M 7.296875 -7.59375 C 7.296875 -6.007812 7.625 -4.832031 8.28125 -4.0625 C 8.945312 -3.300781 9.867188 -2.921875 11.046875 -2.921875 C 11.609375 -2.921875 12.15625 -2.984375 12.6875 -3.109375 C 13.21875 -3.242188 13.6875 -3.398438 14.09375 -3.578125 L 15.0625 -0.359375 C 14.53125 -0.117188 13.875 0.0859375 13.09375 0.265625 C 12.320312 0.441406 11.460938 0.53125 10.515625 0.53125 C 9.484375 0.53125 8.53125 0.378906 7.65625 0.078125 C 6.789062 -0.210938 6.035156 -0.664062 5.390625 -1.28125 C 4.742188 -1.894531 4.234375 -2.6875 3.859375 -3.65625 C 3.492188 -4.632812 3.3125 -5.816406 3.3125 -7.203125 L 3.3125 -32.703125 L 7.296875 -32.703125 Z M 7.296875 -7.59375 "/></g></g></g><g fill="#fdf3e6" fill-opacity="1"><g transform="translate(217.212403, 201.308061)"><g><path d="M 1.984375 -11.359375 C 1.984375 -13.066406 2.25 -14.660156 2.78125 -16.140625 C 3.3125 -17.628906 4.054688 -18.921875 5.015625 -20.015625 C 5.972656 -21.109375 7.117188 -21.960938 8.453125 -22.578125 C 9.796875 -23.191406 11.265625 -23.5 12.859375 -23.5 C 14.179688 -23.5 15.378906 -23.269531 16.453125 -22.8125 C 17.535156 -22.363281 18.472656 -21.800781 19.265625 -21.125 L 19.265625 -22.984375 L 22.890625 -22.984375 L 22.890625 -5.5625 C 22.890625 -4.445312 23.160156 -3.71875 23.703125 -3.375 C 24.253906 -3.039062 24.851562 -2.875 25.5 -2.875 L 24.65625 0.21875 C 21.832031 0.21875 20.125 -0.925781 19.53125 -3.21875 C 19.175781 -2.75 18.769531 -2.285156 18.3125 -1.828125 C 17.851562 -1.378906 17.328125 -0.976562 16.734375 -0.625 C 16.148438 -0.269531 15.488281 0.0078125 14.75 0.21875 C 14.019531 0.425781 13.210938 0.53125 12.328125 0.53125 C 10.878906 0.53125 9.53125 0.25 8.28125 -0.3125 C 7.03125 -0.875 5.941406 -1.664062 5.015625 -2.6875 C 4.085938 -3.71875 3.347656 -4.960938 2.796875 -6.421875 C 2.253906 -7.878906 1.984375 -9.523438 1.984375 -11.359375 Z M 13.21875 -3 C 14.332031 -3 15.390625 -3.265625 16.390625 -3.796875 C 17.390625 -4.328125 18.226562 -5.019531 18.90625 -5.875 L 18.90625 -18.203125 C 18.113281 -18.765625 17.238281 -19.210938 16.28125 -19.546875 C 15.320312 -19.890625 14.3125 -20.0625 13.25 -20.0625 C 12.195312 -20.0625 11.226562 -19.851562 10.34375 -19.4375 C 9.457031 -19.03125 8.695312 -18.453125 8.0625 -17.703125 C 7.425781 -16.953125 6.929688 -16.046875 6.578125 -14.984375 C 6.222656 -13.921875 6.046875 -12.753906 6.046875 -11.484375 C 6.046875 -10.253906 6.222656 -9.113281 6.578125 -8.0625 C 6.929688 -7.019531 7.429688 -6.117188 8.078125 -5.359375 C 8.734375 -4.609375 9.492188 -4.023438 10.359375 -3.609375 C 11.234375 -3.203125 12.1875 -3 13.21875 -3 Z M 13.21875 -3 "/></g></g></g><g fill="#fdf3e6" fill-opacity="1"><g transform="translate(244.474981, 201.308061)"><g><path d="M 3.21875 -5.171875 C 3.988281 -4.492188 4.953125 -3.945312 6.109375 -3.53125 C 7.273438 -3.125 8.523438 -2.921875 9.859375 -2.921875 C 11.503906 -2.921875 12.742188 -3.191406 13.578125 -3.734375 C 14.421875 -4.273438 14.84375 -4.972656 14.84375 -5.828125 C 14.84375 -6.273438 14.757812 -6.6875 14.59375 -7.0625 C 14.4375 -7.445312 14.144531 -7.816406 13.71875 -8.171875 C 13.289062 -8.523438 12.707031 -8.867188 11.96875 -9.203125 C 11.238281 -9.546875 10.285156 -9.925781 9.109375 -10.34375 C 6.921875 -11.070312 5.296875 -11.945312 4.234375 -12.96875 C 3.179688 -13.988281 2.65625 -15.394531 2.65625 -17.1875 C 2.65625 -18.070312 2.851562 -18.894531 3.25 -19.65625 C 3.644531 -20.425781 4.21875 -21.097656 4.96875 -21.671875 C 5.71875 -22.242188 6.628906 -22.691406 7.703125 -23.015625 C 8.785156 -23.335938 10.019531 -23.5 11.40625 -23.5 C 12.90625 -23.5 14.222656 -23.34375 15.359375 -23.03125 C 16.492188 -22.726562 17.515625 -22.34375 18.421875 -21.875 L 17.328125 -18.609375 C 16.523438 -19.078125 15.613281 -19.457031 14.59375 -19.75 C 13.582031 -20.039062 12.457031 -20.1875 11.21875 -20.1875 C 9.6875 -20.1875 8.523438 -19.878906 7.734375 -19.265625 C 6.941406 -18.648438 6.546875 -17.972656 6.546875 -17.234375 C 6.546875 -16.878906 6.609375 -16.550781 6.734375 -16.25 C 6.867188 -15.957031 7.113281 -15.679688 7.46875 -15.421875 C 7.820312 -15.160156 8.289062 -14.894531 8.875 -14.625 C 9.46875 -14.363281 10.207031 -14.082031 11.09375 -13.78125 C 12.53125 -13.28125 13.75 -12.769531 14.75 -12.25 C 15.757812 -11.738281 16.570312 -11.175781 17.1875 -10.5625 C 17.800781 -9.945312 18.238281 -9.273438 18.5 -8.546875 C 18.769531 -7.828125 18.90625 -7.023438 18.90625 -6.140625 C 18.90625 -5.109375 18.6875 -4.179688 18.25 -3.359375 C 17.8125 -2.535156 17.191406 -1.832031 16.390625 -1.25 C 15.597656 -0.675781 14.632812 -0.238281 13.5 0.0625 C 12.363281 0.375 11.101562 0.53125 9.71875 0.53125 C 7.945312 0.53125 6.367188 0.3125 4.984375 -0.125 C 3.609375 -0.570312 2.460938 -1.148438 1.546875 -1.859375 Z M 3.21875 -5.171875 "/></g></g></g><g fill="#fdf3e6" fill-opacity="1"><g transform="translate(154.866381, 264.056031)"><g><path d="M 4.203125 -6.984375 C 4.703125 -6.566406 5.222656 -6.195312 5.765625 -5.875 C 6.316406 -5.550781 6.898438 -5.257812 7.515625 -5 C 8.691406 -4.488281 10.09375 -4.234375 11.71875 -4.234375 C 12.6875 -4.234375 13.53125 -4.328125 14.25 -4.515625 C 14.96875 -4.710938 15.582031 -4.988281 16.09375 -5.34375 C 17.03125 -6.019531 17.5 -6.921875 17.5 -8.046875 C 17.5 -8.128906 17.5 -8.222656 17.5 -8.328125 C 17.5 -8.429688 17.488281 -8.523438 17.46875 -8.609375 C 17.457031 -8.703125 17.441406 -8.800781 17.421875 -8.90625 C 17.410156 -9.007812 17.390625 -9.097656 17.359375 -9.171875 C 17.335938 -9.242188 17.3125 -9.320312 17.28125 -9.40625 C 17.164062 -9.757812 16.914062 -10.113281 16.53125 -10.46875 C 16.082031 -10.882812 15.445312 -11.3125 14.625 -11.75 C 13.71875 -12.21875 12.554688 -12.734375 11.140625 -13.296875 C 9.484375 -13.921875 8.097656 -14.554688 6.984375 -15.203125 C 5.773438 -15.847656 4.789062 -16.566406 4.03125 -17.359375 C 3.757812 -17.660156 3.519531 -17.957031 3.3125 -18.25 C 3.101562 -18.539062 2.910156 -18.847656 2.734375 -19.171875 C 2.566406 -19.492188 2.421875 -19.820312 2.296875 -20.15625 C 1.972656 -21.15625 1.8125 -22.269531 1.8125 -23.5 C 1.8125 -24.769531 2.078125 -25.960938 2.609375 -27.078125 C 3.140625 -28.203125 3.921875 -29.175781 4.953125 -30 C 5.953125 -30.800781 7.175781 -31.4375 8.625 -31.90625 C 10.03125 -32.34375 11.632812 -32.5625 13.4375 -32.5625 C 15.351562 -32.5625 17.078125 -32.367188 18.609375 -31.984375 C 20.140625 -31.609375 21.640625 -31.066406 23.109375 -30.359375 L 24.046875 -29.875 L 23.640625 -28.90625 L 22.09375 -25.3125 L 21.609375 -24.171875 L 20.5 -24.796875 C 20.207031 -24.992188 19.890625 -25.164062 19.546875 -25.3125 C 19.210938 -25.46875 18.851562 -25.617188 18.46875 -25.765625 C 18.09375 -25.910156 17.679688 -26.054688 17.234375 -26.203125 C 15.992188 -26.554688 14.695312 -26.734375 13.34375 -26.734375 C 12.457031 -26.734375 11.679688 -26.648438 11.015625 -26.484375 C 10.359375 -26.328125 9.8125 -26.101562 9.375 -25.8125 C 9.070312 -25.601562 8.832031 -25.394531 8.65625 -25.1875 C 8.476562 -24.976562 8.351562 -24.753906 8.28125 -24.515625 C 8.207031 -24.285156 8.171875 -24.023438 8.171875 -23.734375 C 8.171875 -23.253906 8.234375 -22.851562 8.359375 -22.53125 C 8.441406 -22.238281 8.660156 -21.945312 9.015625 -21.65625 C 9.222656 -21.476562 9.472656 -21.289062 9.765625 -21.09375 C 10.054688 -20.90625 10.410156 -20.707031 10.828125 -20.5 C 11.035156 -20.414062 11.253906 -20.3125 11.484375 -20.1875 C 11.722656 -20.070312 11.984375 -19.953125 12.265625 -19.828125 C 12.546875 -19.710938 12.847656 -19.597656 13.171875 -19.484375 C 13.492188 -19.367188 13.832031 -19.238281 14.1875 -19.09375 C 15.957031 -18.4375 17.445312 -17.757812 18.65625 -17.0625 C 18.914062 -16.90625 19.160156 -16.753906 19.390625 -16.609375 C 19.628906 -16.460938 19.851562 -16.304688 20.0625 -16.140625 C 20.269531 -15.984375 20.472656 -15.820312 20.671875 -15.65625 C 20.878906 -15.5 21.070312 -15.335938 21.25 -15.171875 C 21.425781 -15.015625 21.59375 -14.847656 21.75 -14.671875 C 22.570312 -13.785156 23.160156 -12.828125 23.515625 -11.796875 C 23.867188 -10.796875 24.046875 -9.707031 24.046875 -8.53125 C 24.046875 -6.90625 23.71875 -5.460938 23.0625 -4.203125 C 22.445312 -2.929688 21.582031 -1.851562 20.46875 -0.96875 C 19.375 -0.0820312 18.0625 0.578125 16.53125 1.015625 C 15.050781 1.429688 13.445312 1.640625 11.71875 1.640625 C 9.445312 1.640625 7.367188 1.328125 5.484375 0.703125 C 3.597656 0.0859375 2.003906 -0.71875 0.703125 -1.71875 L -0.078125 -2.34375 L 0.4375 -3.1875 L 2.5625 -6.71875 L 3.234375 -7.828125 Z M 4.203125 -6.984375 "/></g></g></g><g fill="#fdf3e6" fill-opacity="1"><g transform="translate(179.963861, 264.056031)"><g><path d="M 5.34375 -30.484375 L 9.5 -30.484375 L 9.5 -23.25 L 15.859375 -23.25 L 15.859375 -17.59375 L 9.5 -17.59375 L 9.5 -7.59375 C 9.5 -6.863281 9.570312 -6.257812 9.71875 -5.78125 C 9.863281 -5.34375 10.039062 -5.003906 10.25 -4.765625 C 10.457031 -4.535156 10.707031 -4.375 11 -4.28125 C 11.175781 -4.226562 11.351562 -4.1875 11.53125 -4.15625 C 11.707031 -4.125 11.882812 -4.109375 12.0625 -4.109375 C 12.675781 -4.109375 13.238281 -4.195312 13.75 -4.375 C 14.363281 -4.613281 14.9375 -4.878906 15.46875 -5.171875 L 16.609375 -5.78125 L 17.0625 -4.546875 L 18.15625 -1.375 L 18.421875 -0.53125 L 17.671875 -0.09375 C 17.023438 0.320312 16.15625 0.707031 15.0625 1.0625 C 14.507812 1.269531 13.9375 1.414062 13.34375 1.5 C 12.75 1.59375 12.160156 1.640625 11.578125 1.640625 C 9.046875 1.640625 7.03125 0.796875 5.53125 -0.890625 C 4.757812 -1.742188 4.195312 -2.757812 3.84375 -3.9375 C 3.488281 -5.113281 3.3125 -6.4375 3.3125 -7.90625 L 3.3125 -17.59375 L -0.65625 -17.59375 L -0.65625 -23.25 L 3.53125 -23.25 L 4.234375 -29.515625 L 4.375 -30.484375 Z M 5.34375 -30.484375 "/></g></g></g><g fill="#fdf3e6" fill-opacity="1"><g transform="translate(197.505584, 264.056031)"><g><path d="M 0.890625 -11.359375 C 0.890625 -13.179688 1.164062 -14.90625 1.71875 -16.53125 C 2.3125 -18.144531 3.140625 -19.539062 4.203125 -20.71875 C 5.253906 -21.925781 6.523438 -22.875 8.015625 -23.5625 C 9.503906 -24.257812 11.117188 -24.609375 12.859375 -24.609375 C 14.328125 -24.609375 15.664062 -24.359375 16.875 -23.859375 C 17.320312 -23.648438 17.75 -23.429688 18.15625 -23.203125 L 18.15625 -24.078125 L 24 -24.078125 L 24 -5.5625 C 24 -4.851562 24.097656 -4.441406 24.296875 -4.328125 C 24.648438 -4.097656 25.050781 -3.984375 25.5 -3.984375 L 26.953125 -3.984375 L 26.5625 -2.5625 L 25.71875 0.53125 L 25.5 1.328125 L 24.65625 1.328125 C 22.09375 1.328125 20.28125 0.488281 19.21875 -1.1875 C 19.164062 -1.132812 19.125 -1.09375 19.09375 -1.0625 C 18.820312 -0.789062 18.539062 -0.535156 18.25 -0.296875 C 17.957031 -0.0664062 17.648438 0.132812 17.328125 0.3125 C 16.648438 0.71875 15.890625 1.039062 15.046875 1.28125 C 14.203125 1.519531 13.296875 1.640625 12.328125 1.640625 C 11.535156 1.640625 10.757812 1.554688 10 1.390625 C 9.25 1.234375 8.523438 1.003906 7.828125 0.703125 C 6.441406 0.0859375 5.234375 -0.789062 4.203125 -1.9375 C 3.171875 -3.09375 2.359375 -4.460938 1.765625 -6.046875 C 1.179688 -7.609375 0.890625 -9.378906 0.890625 -11.359375 Z M 13.21875 -4.109375 C 14.15625 -4.140625 15.035156 -4.359375 15.859375 -4.765625 C 16.128906 -4.921875 16.378906 -5.078125 16.609375 -5.234375 C 16.847656 -5.398438 17.0625 -5.570312 17.25 -5.75 C 17.445312 -5.925781 17.632812 -6.101562 17.8125 -6.28125 L 17.8125 -17.625 C 17.21875 -17.976562 16.582031 -18.273438 15.90625 -18.515625 C 15.082031 -18.804688 14.195312 -18.953125 13.25 -18.953125 C 12.375 -18.953125 11.566406 -18.78125 10.828125 -18.4375 C 10.085938 -18.101562 9.453125 -17.613281 8.921875 -16.96875 C 8.367188 -16.351562 7.941406 -15.570312 7.640625 -14.625 C 7.316406 -13.6875 7.15625 -12.640625 7.15625 -11.484375 C 7.15625 -10.367188 7.316406 -9.351562 7.640625 -8.4375 C 7.785156 -7.96875 7.96875 -7.539062 8.1875 -7.15625 C 8.414062 -6.769531 8.660156 -6.414062 8.921875 -6.09375 C 9.191406 -5.769531 9.488281 -5.484375 9.8125 -5.234375 C 10.132812 -4.984375 10.472656 -4.785156 10.828125 -4.640625 C 11.179688 -4.460938 11.554688 -4.328125 11.953125 -4.234375 C 12.347656 -4.148438 12.769531 -4.109375 13.21875 -4.109375 Z M 13.21875 -4.109375 "/></g></g></g><g fill="#fdf3e6" fill-opacity="1"><g transform="translate(224.768161, 264.056031)"><g><path d="M 5.34375 -30.484375 L 9.5 -30.484375 L 9.5 -23.25 L 15.859375 -23.25 L 15.859375 -17.59375 L 9.5 -17.59375 L 9.5 -7.59375 C 9.5 -6.863281 9.570312 -6.257812 9.71875 -5.78125 C 9.863281 -5.34375 10.039062 -5.003906 10.25 -4.765625 C 10.457031 -4.535156 10.707031 -4.375 11 -4.28125 C 11.175781 -4.226562 11.351562 -4.1875 11.53125 -4.15625 C 11.707031 -4.125 11.882812 -4.109375 12.0625 -4.109375 C 12.675781 -4.109375 13.238281 -4.195312 13.75 -4.375 C 14.363281 -4.613281 14.9375 -4.878906 15.46875 -5.171875 L 16.609375 -5.78125 L 17.0625 -4.546875 L 18.15625 -1.375 L 18.421875 -0.53125 L 17.671875 -0.09375 C 17.023438 0.320312 16.15625 0.707031 15.0625 1.0625 C 14.507812 1.269531 13.9375 1.414062 13.34375 1.5 C 12.75 1.59375 12.160156 1.640625 11.578125 1.640625 C 9.046875 1.640625 7.03125 0.796875 5.53125 -0.890625 C 4.757812 -1.742188 4.195312 -2.757812 3.84375 -3.9375 C 3.488281 -5.113281 3.3125 -6.4375 3.3125 -7.90625 L 3.3125 -17.59375 L -0.65625 -17.59375 L -0.65625 -23.25 L 3.53125 -23.25 L 4.234375 -29.515625 L 4.375 -30.484375 Z M 5.34375 -30.484375 "/></g></g></g><g fill="#fdf3e6" fill-opacity="1"><g transform="translate(242.309884, 264.056031)"><g><path d="M 7.515625 1.109375 L 2.4375 1.109375 L 2.4375 -24.078125 L 8.609375 -24.078125 L 8.609375 1.109375 Z M 5.53125 -25.8125 C 4.46875 -25.8125 3.550781 -26.191406 2.78125 -26.953125 C 2.019531 -27.722656 1.640625 -28.632812 1.640625 -29.6875 C 1.640625 -30.84375 2 -31.78125 2.71875 -32.5 C 3.4375 -33.21875 4.375 -33.578125 5.53125 -33.578125 C 6.050781 -33.578125 6.546875 -33.484375 7.015625 -33.296875 C 7.492188 -33.109375 7.914062 -32.828125 8.28125 -32.453125 C 8.65625 -32.085938 8.9375 -31.664062 9.125 -31.1875 C 9.3125 -30.71875 9.40625 -30.21875 9.40625 -29.6875 C 9.40625 -28.539062 9.046875 -27.609375 8.328125 -26.890625 C 7.609375 -26.171875 6.675781 -25.8125 5.53125 -25.8125 Z M 5.53125 -25.8125 "/></g></g></g><g fill="#fdf3e6" fill-opacity="1"><g transform="translate(253.356316, 264.056031)"><g><path d="M 19.484375 -11.484375 C 19.484375 -12.515625 19.320312 -13.488281 19 -14.40625 C 18.675781 -15.289062 18.234375 -16.070312 17.671875 -16.75 C 17.460938 -16.957031 17.253906 -17.15625 17.046875 -17.34375 C 16.847656 -17.53125 16.628906 -17.703125 16.390625 -17.859375 C 16.160156 -18.023438 15.910156 -18.171875 15.640625 -18.296875 C 15.285156 -18.503906 14.898438 -18.648438 14.484375 -18.734375 C 14.078125 -18.828125 13.65625 -18.875 13.21875 -18.875 C 11.238281 -18.875 9.703125 -18.238281 8.609375 -16.96875 C 7.492188 -15.644531 6.9375 -13.847656 6.9375 -11.578125 C 6.9375 -10.546875 7.097656 -9.570312 7.421875 -8.65625 C 7.484375 -8.507812 7.539062 -8.363281 7.59375 -8.21875 C 7.65625 -8.070312 7.722656 -7.925781 7.796875 -7.78125 C 7.867188 -7.632812 7.941406 -7.492188 8.015625 -7.359375 C 8.085938 -7.222656 8.160156 -7.097656 8.234375 -6.984375 C 8.304688 -6.867188 8.382812 -6.742188 8.46875 -6.609375 C 8.5625 -6.472656 8.671875 -6.363281 8.796875 -6.28125 C 8.972656 -6.039062 9.160156 -5.820312 9.359375 -5.625 C 9.566406 -5.4375 9.789062 -5.257812 10.03125 -5.09375 C 10.269531 -4.9375 10.519531 -4.800781 10.78125 -4.6875 C 11.132812 -4.476562 11.515625 -4.328125 11.921875 -4.234375 C 12.335938 -4.148438 12.769531 -4.109375 13.21875 -4.109375 C 14.21875 -4.109375 15.097656 -4.285156 15.859375 -4.640625 C 16.242188 -4.816406 16.585938 -5.019531 16.890625 -5.25 C 17.203125 -5.488281 17.492188 -5.769531 17.765625 -6.09375 C 18.328125 -6.71875 18.753906 -7.484375 19.046875 -8.390625 C 19.335938 -9.304688 19.484375 -10.335938 19.484375 -11.484375 Z M 0.65625 -11.484375 C 0.65625 -13.492188 0.984375 -15.304688 1.640625 -16.921875 C 2.285156 -18.546875 3.164062 -19.921875 4.28125 -21.046875 C 5.40625 -22.179688 6.734375 -23.0625 8.265625 -23.6875 C 9.796875 -24.300781 11.445312 -24.609375 13.21875 -24.609375 C 13.65625 -24.609375 14.078125 -24.585938 14.484375 -24.546875 C 14.898438 -24.503906 15.3125 -24.445312 15.71875 -24.375 C 16.132812 -24.300781 16.539062 -24.203125 16.9375 -24.078125 C 17.34375 -23.960938 17.734375 -23.832031 18.109375 -23.6875 C 18.878906 -23.394531 19.59375 -23.023438 20.25 -22.578125 C 20.914062 -22.140625 21.546875 -21.640625 22.140625 -21.078125 C 23.253906 -19.929688 24.140625 -18.546875 24.796875 -16.921875 C 25.441406 -15.328125 25.765625 -13.539062 25.765625 -11.5625 C 25.765625 -9.59375 25.453125 -7.800781 24.828125 -6.1875 C 24.179688 -4.5625 23.300781 -3.175781 22.1875 -2.03125 C 21.625 -1.445312 21.003906 -0.925781 20.328125 -0.46875 C 19.648438 -0.0078125 18.925781 0.378906 18.15625 0.703125 C 16.625 1.328125 14.976562 1.640625 13.21875 1.640625 C 12.332031 1.640625 11.46875 1.554688 10.625 1.390625 C 9.789062 1.234375 8.988281 0.988281 8.21875 0.65625 C 6.6875 0.0078125 5.359375 -0.890625 4.234375 -2.046875 C 3.117188 -3.210938 2.238281 -4.609375 1.59375 -6.234375 C 0.96875 -7.816406 0.65625 -9.566406 0.65625 -11.484375 Z M 0.65625 -11.484375 "/></g></g></g><g fill="#fdf3e6" fill-opacity="1"><g transform="translate(279.779374, 264.056031)"><g><path d="M 8.484375 -22.046875 C 8.722656 -22.285156 8.957031 -22.492188 9.1875 -22.671875 C 9.425781 -22.847656 9.675781 -23.007812 9.9375 -23.15625 C 11.414062 -24.125 13.140625 -24.609375 15.109375 -24.609375 C 16.554688 -24.609375 17.835938 -24.378906 18.953125 -23.921875 C 20.078125 -23.472656 21.019531 -22.789062 21.78125 -21.875 C 23.226562 -20.101562 23.953125 -17.804688 23.953125 -14.984375 L 23.953125 1.109375 L 17.765625 1.109375 L 17.765625 -14.53125 C 17.765625 -15.03125 17.726562 -15.488281 17.65625 -15.90625 C 17.582031 -16.320312 17.476562 -16.691406 17.34375 -17.015625 C 17.207031 -17.335938 17.035156 -17.617188 16.828125 -17.859375 C 16.660156 -18.085938 16.460938 -18.28125 16.234375 -18.4375 C 16.015625 -18.601562 15.757812 -18.722656 15.46875 -18.796875 C 15.175781 -18.867188 14.835938 -18.90625 14.453125 -18.90625 C 13.921875 -18.90625 13.390625 -18.804688 12.859375 -18.609375 C 12.296875 -18.398438 11.75 -18.101562 11.21875 -17.71875 C 10.6875 -17.300781 10.1875 -16.84375 9.71875 -16.34375 C 9.539062 -16.113281 9.347656 -15.875 9.140625 -15.625 C 8.941406 -15.375 8.765625 -15.128906 8.609375 -14.890625 L 8.609375 1.109375 L 2.4375 1.109375 L 2.4375 -24.078125 L 8.484375 -24.078125 Z M 8.484375 -22.046875 "/></g></g></g><g fill="#fdf3e6" fill-opacity="1"><g transform="translate(305.937322, 264.056031)"><g><path d="M 7.375 -8.75 C 7.695312 -7.457031 8.257812 -6.410156 9.0625 -5.609375 C 10.09375 -4.609375 11.476562 -4.109375 13.21875 -4.109375 C 13.625 -4.109375 14.019531 -4.125 14.40625 -4.15625 C 14.789062 -4.1875 15.160156 -4.226562 15.515625 -4.28125 C 15.867188 -4.34375 16.207031 -4.414062 16.53125 -4.5 C 16.851562 -4.59375 17.175781 -4.691406 17.5 -4.796875 C 17.820312 -4.898438 18.132812 -5.007812 18.4375 -5.125 C 18.75 -5.238281 19.066406 -5.375 19.390625 -5.53125 L 20.546875 -6.046875 L 20.90625 -4.8125 L 21.828125 -1.40625 L 22.09375 -0.484375 L 21.25 -0.09375 C 20.101562 0.4375 18.820312 0.851562 17.40625 1.15625 C 16.695312 1.320312 15.953125 1.441406 15.171875 1.515625 C 14.390625 1.597656 13.570312 1.640625 12.71875 1.640625 C 10.925781 1.640625 9.296875 1.34375 7.828125 0.75 C 6.347656 0.132812 5.09375 -0.75 4.0625 -1.90625 C 3.03125 -3.019531 2.234375 -4.398438 1.671875 -6.046875 C 1.148438 -7.640625 0.890625 -9.453125 0.890625 -11.484375 C 0.890625 -13.316406 1.148438 -15.023438 1.671875 -16.609375 C 1.972656 -17.410156 2.3125 -18.160156 2.6875 -18.859375 C 3.070312 -19.566406 3.515625 -20.21875 4.015625 -20.8125 C 5.023438 -21.988281 6.234375 -22.914062 7.640625 -23.59375 C 9.054688 -24.269531 10.632812 -24.609375 12.375 -24.609375 C 12.957031 -24.609375 13.519531 -24.570312 14.0625 -24.5 C 14.613281 -24.425781 15.144531 -24.320312 15.65625 -24.1875 C 16.175781 -24.0625 16.671875 -23.894531 17.140625 -23.6875 C 17.847656 -23.363281 18.488281 -22.988281 19.0625 -22.5625 C 19.632812 -22.132812 20.160156 -21.640625 20.640625 -21.078125 C 21.546875 -19.984375 22.238281 -18.734375 22.71875 -17.328125 C 22.914062 -16.617188 23.070312 -15.882812 23.1875 -15.125 C 23.3125 -14.375 23.375 -13.617188 23.375 -12.859375 C 23.375 -12.648438 23.375 -12.441406 23.375 -12.234375 C 23.375 -12.035156 23.363281 -11.820312 23.34375 -11.59375 C 23.332031 -11.375 23.328125 -11.160156 23.328125 -10.953125 C 23.328125 -10.753906 23.316406 -10.554688 23.296875 -10.359375 C 23.285156 -10.171875 23.269531 -9.972656 23.25 -9.765625 L 23.15625 -8.75 Z M 12.28125 -18.953125 C 10.863281 -18.953125 9.71875 -18.484375 8.84375 -17.546875 C 8.488281 -17.160156 8.175781 -16.6875 7.90625 -16.125 C 7.644531 -15.5625 7.441406 -14.914062 7.296875 -14.1875 L 17.453125 -14.1875 C 17.304688 -15.601562 16.863281 -16.707031 16.125 -17.5 C 15.21875 -18.46875 13.9375 -18.953125 12.28125 -18.953125 Z M 12.28125 -18.953125 "/></g></g></g><g fill="#fdf3e6" fill-opacity="1"><g transform="translate(329.974363, 264.056031)"><g><path d="M 15.546875 -18.109375 C 15.140625 -18.285156 14.625 -18.375 14 -18.375 C 13.675781 -18.375 13.351562 -18.335938 13.03125 -18.265625 C 12.707031 -18.191406 12.382812 -18.082031 12.0625 -17.9375 C 11.414062 -17.675781 10.859375 -17.25 10.390625 -16.65625 C 10.117188 -16.363281 9.878906 -16.019531 9.671875 -15.625 C 9.472656 -15.226562 9.285156 -14.789062 9.109375 -14.3125 C 8.773438 -13.3125 8.609375 -12.117188 8.609375 -10.734375 L 8.609375 1.109375 L 2.4375 1.109375 L 2.4375 -24.078125 L 8.484375 -24.078125 L 8.484375 -21.921875 C 8.742188 -22.179688 9.023438 -22.429688 9.328125 -22.671875 C 10.003906 -23.253906 10.796875 -23.722656 11.703125 -24.078125 C 12.179688 -24.253906 12.671875 -24.382812 13.171875 -24.46875 C 13.671875 -24.5625 14.203125 -24.609375 14.765625 -24.609375 C 15.234375 -24.609375 15.703125 -24.582031 16.171875 -24.53125 C 16.671875 -24.5 17.113281 -24.421875 17.5 -24.296875 L 18.5625 -24 L 18.25 -22.9375 L 17.0625 -18.828125 L 16.703125 -17.625 Z M 15.546875 -18.109375 "/></g></g></g><g fill="#fdf3e6" fill-opacity="1"><g transform="translate(347.604465, 264.056031)"><g><path d="M 4.15625 11.359375 C 4.070312 11.359375 3.976562 11.359375 3.875 11.359375 C 3.769531 11.359375 3.671875 11.359375 3.578125 11.359375 C 3.492188 11.359375 3.40625 11.347656 3.3125 11.328125 C 3.226562 11.316406 3.140625 11.3125 3.046875 11.3125 C 2.960938 11.3125 2.875 11.300781 2.78125 11.28125 C 2.695312 11.269531 2.609375 11.253906 2.515625 11.234375 C 2.429688 11.222656 2.351562 11.207031 2.28125 11.1875 C 2.207031 11.175781 2.125 11.164062 2.03125 11.15625 C 1.945312 11.144531 1.867188 11.128906 1.796875 11.109375 C 1.722656 11.097656 1.640625 11.078125 1.546875 11.046875 C 0.785156 10.835938 0.164062 10.585938 -0.3125 10.296875 L -1.015625 9.890625 L -0.796875 9.109375 L 0.09375 5.78125 L 0.4375 4.375 L 1.71875 5.078125 C 1.988281 5.253906 2.332031 5.40625 2.75 5.53125 C 3.1875 5.644531 3.6875 5.703125 4.25 5.703125 C 4.507812 5.703125 4.75 5.6875 4.96875 5.65625 C 5.195312 5.625 5.425781 5.566406 5.65625 5.484375 C 5.832031 5.421875 6.023438 5.328125 6.234375 5.203125 C 6.441406 5.085938 6.632812 4.941406 6.8125 4.765625 C 7.25 4.410156 7.660156 3.894531 8.046875 3.21875 C 8.453125 2.519531 8.878906 1.625 9.328125 0.53125 L 9.765625 -0.625 L 8.53125 -0.625 L 8.21875 -1.28125 L -0.75 -21.46875 L -1.1875 -22.484375 L -0.171875 -22.9375 L 3.359375 -24.53125 L 4.375 -24.96875 L 4.8125 -23.953125 L 12.25 -7.328125 L 17.984375 -23.6875 L 18.390625 -24.796875 L 19.4375 -24.34375 L 23.109375 -22.9375 L 24.125 -22.53125 L 23.734375 -21.515625 L 15.296875 1.546875 C 15.171875 1.898438 15.039062 2.242188 14.90625 2.578125 C 14.78125 2.921875 14.644531 3.253906 14.5 3.578125 C 14.351562 3.898438 14.203125 4.207031 14.046875 4.5 C 13.898438 4.800781 13.753906 5.082031 13.609375 5.34375 C 13.460938 5.613281 13.316406 5.878906 13.171875 6.140625 C 12.785156 6.753906 12.378906 7.316406 11.953125 7.828125 C 11.523438 8.347656 11.078125 8.800781 10.609375 9.1875 C 10.140625 9.601562 9.644531 9.953125 9.125 10.234375 C 8.613281 10.515625 8.09375 10.726562 7.5625 10.875 C 6.5 11.195312 5.363281 11.359375 4.15625 11.359375 Z M 4.15625 11.359375 "/></g></g></g></svg>