<svg xmlns="http://www.w3.org/2000/svg" xmlns:xlink="http://www.w3.org/1999/xlink" width="800" zoomAndPan="magnify" viewBox="0 0 600 599.999999" height="800" preserveAspectRatio="xMidYMid meet" version="1.0"><defs><clipPath id="2f7b587f45"><path d="M 108 37.34375 L 492 37.34375 L 492 562.34375 L 108 562.34375 Z M 108 37.34375 " clip-rule="nonzero"/></clipPath></defs><rect x="-60" width="720" fill="#ffffff" y="-60" height="719.999999" fill-opacity="1"/><rect x="-60" width="720" fill="#ffffff" y="-60" height="719.999999" fill-opacity="1"/><rect x="-60" width="720" fill="#000000" y="-60" height="719.999999" fill-opacity="1"/><g clip-path="url(#2f7b587f45)"><path fill="#fdf3e6" d="M 471.929688 126.316406 L 445.667969 224.132812 C 444.285156 228.828125 447.328125 233.804688 452.027344 234.910156 C 452.855469 235.183594 453.683594 235.183594 454.238281 235.183594 C 458.109375 235.183594 461.703125 232.699219 462.808594 228.554688 L 491.28125 122.171875 C 491.835938 119.960938 491.558594 117.472656 490.453125 115.539062 C 489.347656 113.605469 487.410156 111.949219 484.925781 111.394531 L 468.058594 106.972656 L 473.3125 87.078125 C 477.183594 72.988281 468.613281 58.066406 454.515625 54.472656 L 438.203125 50.054688 C 424.105469 46.183594 409.175781 54.75 405.582031 68.84375 L 354.4375 259.5 L 352.226562 259.5 L 352.226562 46.183594 C 352.503906 41.210938 348.632812 37.34375 343.65625 37.34375 L 254.917969 37.34375 C 249.941406 37.34375 246.070312 41.210938 246.070312 46.183594 L 246.070312 259.777344 L 242.199219 259.777344 L 194.375 110.289062 C 194.375 110.289062 194.375 110.289062 194.375 110.011719 C 194.097656 108.910156 193.269531 107.804688 192.4375 106.972656 C 192.4375 106.972656 192.4375 106.699219 192.164062 106.699219 L 135.765625 48.949219 C 133.277344 46.460938 129.683594 45.632812 126.644531 46.738281 C 123.328125 47.84375 121.113281 50.605469 120.5625 53.921875 L 108.121094 133.5 C 108.121094 133.777344 108.121094 133.777344 108.121094 134.054688 C 108.121094 134.882812 108.121094 135.710938 108.398438 136.539062 C 108.398438 136.816406 108.398438 137.09375 108.398438 137.367188 L 147.652344 259.5 C 140.742188 259.5 134.109375 262.261719 129.132812 267.238281 C 124.15625 272.210938 121.390625 279.117188 121.390625 286.027344 C 121.390625 299.289062 131.066406 310.066406 143.785156 312.277344 L 143.785156 512.605469 C 143.785156 539.960938 166.175781 562.34375 193.542969 562.34375 L 397.011719 562.34375 C 424.382812 562.34375 446.773438 539.960938 446.773438 512.605469 L 446.773438 312.828125 C 459.492188 310.617188 469.167969 299.84375 469.167969 286.578125 C 469.167969 279.394531 466.402344 272.761719 461.425781 267.789062 C 456.449219 262.816406 449.816406 260.054688 442.628906 260.054688 L 428.25 260.054688 L 458.660156 146.210938 L 464.464844 124.382812 Z M 423 73.816406 C 424.382812 69.117188 429.355469 66.355469 433.78125 67.460938 L 450.089844 71.882812 C 454.789062 73.261719 457.554688 77.960938 456.449219 82.660156 L 448.707031 111.117188 L 442.902344 132.949219 L 409.453125 124.105469 Z M 263.761719 55.027344 L 334.8125 55.027344 L 334.8125 63.316406 L 301.914062 63.316406 C 296.9375 63.316406 293.066406 67.183594 293.066406 72.160156 C 293.066406 77.132812 296.9375 81 301.914062 81 L 334.8125 81 L 334.8125 94.539062 L 317.671875 94.539062 C 312.695312 94.539062 308.824219 98.410156 308.824219 103.382812 C 308.824219 108.355469 312.695312 112.222656 317.671875 112.222656 L 334.8125 112.222656 L 334.8125 125.761719 L 301.914062 125.761719 C 296.9375 125.761719 293.066406 129.632812 293.066406 134.605469 C 293.066406 139.578125 296.9375 143.449219 301.914062 143.449219 L 334.8125 143.449219 L 334.8125 156.988281 L 317.671875 156.988281 C 312.695312 156.988281 308.824219 160.855469 308.824219 165.828125 C 308.824219 170.804688 312.695312 174.671875 317.671875 174.671875 L 334.8125 174.671875 L 334.8125 188.210938 L 301.914062 188.210938 C 296.9375 188.210938 293.066406 192.078125 293.066406 197.054688 C 293.066406 202.027344 296.9375 205.894531 301.914062 205.894531 L 334.8125 205.894531 L 334.8125 219.433594 L 317.671875 219.433594 C 312.695312 219.433594 308.824219 223.304688 308.824219 228.277344 C 308.824219 233.25 312.695312 237.117188 317.671875 237.117188 L 334.8125 237.117188 L 334.8125 259.222656 L 263.761719 259.222656 Z M 166.175781 259.777344 L 128.027344 140.683594 C 132.449219 139.304688 138.53125 137.367188 145.441406 135.160156 L 184.699219 259.777344 Z M 129.960938 109.738281 L 160.921875 100.34375 L 169.492188 108.910156 C 149.589844 115.261719 136.597656 119.410156 128.027344 122.171875 Z M 203.496094 259.777344 L 162.582031 129.632812 C 168.386719 127.699219 174.46875 125.761719 180 124.105469 L 223.402344 259.777344 Z M 146.824219 85.699219 L 133.003906 89.84375 L 135.488281 73.816406 Z M 161.476562 366.710938 L 286.15625 366.710938 L 286.15625 433.578125 L 161.476562 433.578125 Z M 428.527344 512.605469 C 428.527344 530.289062 414.152344 544.382812 396.734375 544.382812 L 193.269531 544.382812 C 175.574219 544.382812 161.476562 530.011719 161.476562 512.605469 L 161.476562 450.988281 L 295.003906 450.988281 C 299.976562 450.988281 303.847656 447.117188 303.847656 442.144531 L 303.847656 357.59375 C 303.847656 352.617188 299.976562 348.75 295.003906 348.75 L 161.476562 348.75 L 161.476562 313.105469 L 428.527344 313.105469 Z M 448.15625 280.222656 C 449.816406 281.882812 450.644531 284.09375 450.644531 286.578125 C 450.644531 291.554688 446.773438 295.421875 441.796875 295.421875 L 148.207031 295.421875 C 143.230469 295.421875 139.359375 291.554688 139.359375 286.578125 C 139.359375 284.09375 140.191406 281.882812 141.847656 280.222656 C 143.507812 278.566406 145.71875 277.738281 148.207031 277.738281 L 441.796875 277.738281 C 444.285156 277.460938 446.496094 278.566406 448.15625 280.222656 Z M 373.238281 259.777344 L 405.03125 140.960938 L 438.480469 149.804688 L 409.175781 259.5 L 373.238281 259.5 Z M 373.238281 259.777344 " fill-opacity="1" fill-rule="nonzero"/></g></svg>